<?xml version="1.0" encoding="utf-8"?>
<!-- Generator: Adobe Illustrator 24.0.3, SVG Export Plug-In . SVG Version: 6.00 Build 0)  -->
<svg version="1.1" id="Layer_1" xmlns="http://www.w3.org/2000/svg" xmlns:xlink="http://www.w3.org/1999/xlink" x="0px" y="0px"
	 viewBox="0 0 144 144" style="enable-background:new 0 0 144 144;" xml:space="preserve">
<style type="text/css">
	.st0{fill:#12100B;}
</style>
<g>
	<path class="st0" d="M133.34,0H10.63C4.76,0,0,4.65,0,10.38v123.23C0,139.35,4.76,144,10.63,144h122.72
		c5.87,0,10.66-4.65,10.66-10.39V10.38C144,4.65,139.22,0,133.34,0z M42.71,122.71H21.35V53.99h21.36V122.71z M32.04,44.59
		c-6.85,0-12.39-5.55-12.39-12.39c0-6.83,5.54-12.38,12.39-12.38c6.83,0,12.38,5.55,12.38,12.38
		C44.41,39.04,38.86,44.59,32.04,44.59z M122.71,122.71h-21.34V89.29c0-7.97-0.15-18.22-11.1-18.22c-11.11,0-12.82,8.68-12.82,17.64
		v34H56.11V53.99h20.49v9.39h0.29c2.85-5.4,9.82-11.1,20.21-11.1c21.63,0,25.62,14.23,25.62,32.74V122.71z"/>
</g>
</svg>
