<?xml version="1.0" encoding="utf-8"?>
<!-- Svg Vector Icons : http://www.onlinewebfonts.com/icon -->
<!DOCTYPE svg PUBLIC "-//W3C//DTD SVG 1.1//EN" "http://www.w3.org/Graphics/SVG/1.1/DTD/svg11.dtd">
<svg version="1.1" xmlns="http://www.w3.org/2000/svg" xmlns:xlink="http://www.w3.org/1999/xlink" x="0px" y="0px" viewBox="0 0 1000 1000" enable-background="new 0 0 1000 1000" xml:space="preserve">
<metadata> Svg Vector Icons : http://www.onlinewebfonts.com/icon </metadata>
<g><path d="M977.4,442.9c0,0,0,0.1,0,0.1c-6.4,19.5-27.5,30.2-47.2,23.9c-19.8-6.3-30.6-27.3-24.2-46.9l0,0c19.6-60.1,7.2-128.7-38.6-178.9c-45.7-50.3-113.2-69.5-175.6-56.4c-20.3,4.3-40.2-8.6-44.5-28.6c-4.3-20.1,8.6-39.9,28.9-44.2h0c87.6-18.5,182.6,8.5,246.9,79.3C987.5,262,1004.9,358.3,977.4,442.9z M717.5,303.8L717.5,303.8c-17.4,3.7-34.6-7.4-38.3-24.6c-3.7-17.3,7.4-34.4,24.8-38c42.7-9,89,4.1,120.3,38.6c31.4,34.5,39.8,81.4,26.4,122.6c-5.5,16.9-23.7,26-40.7,20.7c-17-5.4-26.2-23.5-20.8-40.4h0c6.6-20.1,2.5-43.1-12.9-60C761,305.8,738.4,299.5,717.5,303.8z M511.8,362.5c99.8-41.4,186.8-43.9,218.6,1.2c17,24,15.3,57.7-0.3,96.8c-7.2,18,2.2,20.8,16,24.9C802.4,502.7,865,544.5,865,618.2c0,121.9-177.3,275.5-443.8,275.5C217.8,893.7,10,795.9,10,635.2c0-84,53.7-181.2,146.1-272.9c123.4-122.4,267.4-178.1,321.5-124.4c23.9,23.7,26.2,64.6,10.8,113.6C480.5,376.1,511.8,362.5,511.8,362.5z M383.6,453.5c-162.2,15.9-285.2,114.4-274.7,220C119.4,779.2,259.5,851.9,421.7,836c162.3-15.9,285.2-114.4,274.7-220.1C685.9,510.4,545.8,437.6,383.6,453.5z M316.8,790.7c-78-25-111-101.3-76.9-170.1c33.5-67.5,120.8-105.6,198-85.7c79.9,20.5,120.7,95.2,88,167.8C492.8,776.9,397.6,816.5,316.8,790.7z M360.8,646.1c-25.1-10.4-57.6,0.3-73.1,24.4c-15.7,24.2-8.3,53,16.6,64.3c25.3,11.5,58.9,0.6,74.6-24.2C394.4,685.5,386.2,656.8,360.8,646.1z M422.7,620.6c-9.6-3.8-21.7,0.8-27.3,10.2c-5.5,9.4-2.5,20.2,7.2,24.2c9.8,4,22.4-0.6,28-10.2C436.1,635,432.5,624.2,422.7,620.6z"/></g>
</svg>