<?xml version="1.0" encoding="utf-8"?>
<!-- Generator: Adobe Illustrator 25.1.0, SVG Export Plug-In . SVG Version: 6.00 Build 0)  -->
<svg version="1.1" id="Layer_1" xmlns="http://www.w3.org/2000/svg" xmlns:xlink="http://www.w3.org/1999/xlink" x="0px" y="0px"
	 viewBox="170 95 590 417" xml:space="preserve">
<style type="text/css">
	.st0{fill:#FFFFFF;}
</style>
<circle cx="420.95" cy="328.67" r="251.5"/>
<g>
	<path class="st0" d="M429.52,152.73c-0.06,1.29-0.16,2.31-0.16,3.33c-0.08,80.21-0.21,160.41-0.19,240.62
		c0.01,28.43-23.95,52.31-52.44,51.87c-33.29-0.51-57.4-30.48-50.78-63.11c5.28-25.99,31.57-44.5,57.68-40.58
		c3.25,0.49,6.47,1.16,9.82,1.76c0-19.49,0-38.73,0-58.18c-1.31-0.26-2.52-0.58-3.76-0.72c-10.38-1.18-20.74-0.94-31.03,0.76
		c-49.3,8.13-86.48,47.01-91.77,96.83c-3.65,34.32,7.18,64.16,31.62,88.37c36.34,36,91.31,42.87,135.15,16.59
		c32.99-19.78,51.21-49.44,53.52-88.11c0.75-12.53,0.13-25.14,0.11-37.71c-0.03-30.93-0.08-61.86-0.1-92.78
		c0-0.94,0.15-1.89,0.26-3.17c26.64,19.77,56.07,29.74,88.99,30.03c0-19.33,0-38.32,0-57.58c-24.39-0.36-45.45-8.78-62.72-25.81
		c-17.28-17.04-25.91-38.02-26.67-62.41C467.87,152.73,448.88,152.73,429.52,152.73z"/>
	<path class="st0" d="M429.52,152.73c19.36,0,38.35,0,57.54,0c0.77,24.38,9.39,45.37,26.67,62.41
		c17.27,17.03,38.33,25.44,62.72,25.81c0,19.26,0,38.25,0,57.58c-32.93-0.29-62.35-10.26-88.99-30.03
		c-0.11,1.28-0.26,2.22-0.26,3.17c0.03,30.93,0.07,61.86,0.1,92.78c0.01,12.57,0.64,25.18-0.11,37.71
		c-2.32,38.67-20.54,68.33-53.52,88.11c-43.83,26.28-98.8,19.42-135.15-16.59c-24.44-24.21-35.27-54.05-31.62-88.37
		c5.29-49.82,42.47-88.7,91.77-96.83c10.29-1.7,20.66-1.94,31.03-0.76c1.23,0.14,2.44,0.46,3.76,0.72c0,19.45,0,38.69,0,58.18
		c-3.35-0.61-6.57-1.28-9.82-1.76c-26.11-3.92-52.4,14.59-57.68,40.58c-6.63,32.63,17.48,62.6,50.78,63.11
		c28.49,0.44,52.44-23.44,52.44-51.87c-0.02-80.21,0.11-160.41,0.19-240.62C429.36,155.04,429.46,154.02,429.52,152.73z"/>
</g>
</svg>
